<?xml version="1.0" encoding="iso-8859-1"?>
<!-- Generator: Adobe Illustrator 20.1.0, SVG Export Plug-In . SVG Version: 6.00 Build 0)  -->
<svg xmlns="http://www.w3.org/2000/svg" xmlns:xlink="http://www.w3.org/1999/xlink" version="1.1" id="&#1057;&#1083;&#1086;&#1081;_1" x="0px" y="0px" viewBox="0 0 64 64" style="enable-background:new 0 0 64 64;" xml:space="preserve">
<linearGradient id="SVGID_1__53003" gradientUnits="userSpaceOnUse" x1="28" y1="17.875" x2="28" y2="29.6575" spreadMethod="reflect">
	<stop offset="0" style="stop-color:#6DC7FF"/>
	<stop offset="1" style="stop-color:#E6ABFF"/>
</linearGradient>
<path style="fill:url(#SVGID_1__53003);" d="M41.834,18H14.166c-0.98,0-1.38,1.26-0.579,1.826l13.261,9.361  c0.691,0.488,1.615,0.488,2.306,0l13.261-9.361C43.215,19.26,42.815,18,41.834,18z"/>
<linearGradient id="SVGID_2__53003" gradientUnits="userSpaceOnUse" x1="32" y1="9.75" x2="32" y2="54.1102" spreadMethod="reflect">
	<stop offset="0" style="stop-color:#1A6DFF"/>
	<stop offset="1" style="stop-color:#C822FF"/>
</linearGradient>
<path style="fill:url(#SVGID_2__53003);" d="M50,32.426V17c0-1.654-1.346-3-3-3H9c-1.654,0-3,1.346-3,3v28c0,1.654,1.346,3,3,3h28.214  c1.825,3.556,5.521,6,9.786,6c6.065,0,11-4.935,11-11C58,37.976,54.61,33.737,50,32.426z M47,32c-1.345,0-2.628,0.254-3.82,0.698  l-5.818-4.156L48,20.943v11.108C47.67,32.021,47.337,32,47,32z M9,16h38c0.552,0,1,0.448,1,1v1.486l-18.255,13.04  c-1.043,0.744-2.447,0.744-3.49,0L8,18.486V17C8,16.448,8.448,16,9,16z M18.638,28.542L8,36.141V20.943L18.638,28.542z M9,46  c-0.552,0-1-0.448-1-1v-6.402l12.358-8.827l4.735,3.382c0.869,0.62,1.889,0.931,2.907,0.931s2.038-0.311,2.907-0.932l4.734-3.382  l5.505,3.933c-2.82,1.782-4.779,4.802-5.096,8.297H14v2h22.051c0.062,0.688,0.192,1.354,0.375,2H9z M47,52c-4.963,0-9-4.037-9-9  s4.037-9,9-9s9,4.037,9,9S51.963,52,47,52z"/>
<linearGradient id="SVGID_3__53003" gradientUnits="userSpaceOnUse" x1="28" y1="9.75" x2="28" y2="54.1102" spreadMethod="reflect">
	<stop offset="0" style="stop-color:#1A6DFF"/>
	<stop offset="1" style="stop-color:#C822FF"/>
</linearGradient>
<rect x="8" y="10" style="fill:url(#SVGID_3__53003);" width="40" height="2"/>
<linearGradient id="SVGID_4__53003" gradientUnits="userSpaceOnUse" x1="47.0005" y1="36.875" x2="47.0005" y2="49.0058" spreadMethod="reflect">
	<stop offset="0" style="stop-color:#6DC7FF"/>
	<stop offset="1" style="stop-color:#E6ABFF"/>
</linearGradient>
<path style="fill:url(#SVGID_4__53003);" d="M44.92,48.749l-1.324-1.498l4.809-4.25l-4.809-4.252l1.324-1.498l4.809,4.25  c0.43,0.379,0.677,0.926,0.677,1.499s-0.247,1.12-0.677,1.5L44.92,48.749z"/>
</svg>
